<?xml version="1.0" standalone="no"?>
<!DOCTYPE svg PUBLIC "-//W3C//DTD SVG 20010904//EN"
 "http://www.w3.org/TR/2001/REC-SVG-20010904/DTD/svg10.dtd">
<svg version="1.0" xmlns="http://www.w3.org/2000/svg"
 width="300.000000pt" height="300.000000pt" viewBox="0 0 300.000000 300.000000"
 preserveAspectRatio="xMidYMid meet">
<metadata>
Created by potrace 1.10, written by Peter Selinger 2001-2011
</metadata>
<g transform="translate(0.000000,300.000000) scale(0.100000,-0.100000)"
fill="#000000" stroke="none">
<path d="M1230 2975 c-203 -37 -435 -136 -604 -256 -110 -79 -262 -230 -339
-337 -66 -92 -154 -255 -192 -357 -42 -109 -75 -262 -81 -370 -7 -133 8 -108
41 67 30 165 71 292 139 428 173 350 483 617 856 738 59 19 109 31 270 63 85
17 130 29 130 34 0 10 -148 3 -220 -10z"/>
<path d="M1561 2981 c9 -6 76 -22 150 -35 74 -14 152 -30 174 -37 467 -129
846 -487 999 -943 14 -43 39 -144 55 -225 38 -190 50 -219 50 -130 2 218 -112
541 -270 763 -203 284 -520 498 -863 582 -106 25 -325 44 -295 25z"/>
<path d="M1672 2557 c-19 -20 -22 -35 -22 -106 0 -74 -3 -86 -25 -113 l-25
-30 0 -290 0 -291 -32 -38 c-92 -108 -93 -110 -92 -160 1 -57 12 -73 75 -105
26 -13 50 -33 54 -44 4 -11 3 -59 0 -106 -7 -80 -6 -87 16 -110 l23 -25 -3
-268 c-3 -289 1 -315 50 -342 12 -6 88 -12 174 -14 l154 -4 26 30 c39 47 33
78 -38 192 -105 168 -147 244 -147 267 0 12 -8 34 -18 48 -10 15 -22 32 -26
39 -7 13 31 53 51 53 8 0 46 -22 85 -50 83 -58 116 -63 148 -23 23 29 60 108
60 128 0 19 -48 62 -76 69 -14 4 -43 18 -65 32 -34 21 -39 29 -39 62 0 57 14
67 114 81 106 14 146 30 169 64 16 25 16 30 -7 106 -25 88 -47 121 -80 121
-12 0 -54 -9 -93 -20 -40 -11 -109 -23 -155 -26 -71 -6 -85 -4 -97 10 -12 14
-13 70 -8 320 l5 304 -23 22 c-19 18 -23 33 -27 108 -3 67 -8 92 -23 110 -25
28 -56 28 -83 -1z m62 -124 l-1 -112 31 -3 c23 -2 32 -9 34 -25 2 -13 -2 -23
-8 -23 -6 0 -8 -5 -4 -12 12 -19 12 -48 1 -48 -5 0 -4 -6 2 -14 9 -10 9 -16 1
-21 -13 -8 -12 -506 1 -527 11 -17 201 -3 289 22 116 32 110 34 132 -40 35
-113 35 -116 -4 -128 -39 -13 -127 -28 -216 -37 -54 -6 -62 -10 -56 -24 14
-34 16 -61 6 -91 -6 -17 -9 -37 -5 -46 6 -16 132 -84 156 -84 34 0 36 -22 4
-86 -17 -35 -35 -64 -40 -64 -11 0 -154 97 -162 110 -10 16 -41 12 -59 -9 -10
-11 -28 -21 -40 -23 -18 -3 -21 -11 -24 -55 -3 -47 -1 -52 20 -55 18 -2 24
-10 26 -38 3 -33 152 -299 194 -346 22 -24 24 -87 4 -103 -11 -10 -29 -10 -76
0 -35 7 -95 9 -140 6 -130 -9 -123 -27 -120 302 3 351 5 328 -22 327 -22 -1
-23 2 -19 54 1 30 7 60 12 67 7 7 5 13 -3 15 -10 4 -10 8 1 21 7 10 9 17 3 17
-11 0 -11 49 1 67 5 7 -9 13 -43 18 -27 4 -50 11 -50 16 0 5 -11 11 -25 15
-22 5 -25 11 -25 54 0 45 2 48 29 53 26 5 30 11 33 44 3 36 5 38 36 38 30 0
32 2 33 35 0 19 1 75 3 123 1 49 -2 91 -7 94 -5 3 -3 9 4 14 12 8 11 11 -1 19
-13 9 -13 11 -1 19 12 8 12 12 2 24 -9 12 -9 16 1 20 10 4 10 8 -2 16 -13 10
-13 12 0 21 13 9 13 11 0 21 -12 8 -12 12 -2 16 10 4 10 8 0 21 -8 9 -9 17 -3
19 11 3 12 94 1 111 -3 6 0 13 6 15 10 4 10 8 0 15 -25 17 -10 47 26 50 28 3
32 7 28 26 -4 21 -9 180 -7 199 1 5 11 7 24 5 21 -3 22 -6 21 -115z"/>
<path d="M1680 2270 c0 -5 14 -10 30 -10 17 0 30 5 30 10 0 6 -13 10 -30 10
-16 0 -30 -4 -30 -10z"/>
<path d="M1682 2198 c7 -20 58 -23 58 -4 0 11 -10 16 -31 16 -20 0 -29 -4 -27
-12z"/>
<path d="M1700 2111 c0 -29 4 -41 15 -41 10 0 13 10 11 37 -5 52 -26 55 -26 4z"/>
<path d="M1667 2053 c-11 -10 -8 -53 3 -53 6 0 10 14 10 30 0 31 -2 35 -13 23z"/>
<path d="M1702 2004 c2 -20 9 -39 16 -42 10 -3 12 6 10 34 -2 20 -9 39 -16 42
-10 3 -12 -6 -10 -34z"/>
<path d="M1660 1936 c0 -14 5 -28 10 -31 6 -4 10 7 10 24 0 17 -4 31 -10 31
-5 0 -10 -11 -10 -24z"/>
<path d="M1704 1916 c-8 -22 -1 -59 14 -64 8 -2 12 8 12 32 0 37 -16 57 -26
32z"/>
<path d="M1706 1811 c-8 -13 5 -71 15 -71 5 0 9 18 9 40 0 37 -11 52 -24 31z"/>
<path d="M1610 1560 c0 -13 7 -20 20 -20 13 0 20 7 20 20 0 13 -7 20 -20 20
-13 0 -20 -7 -20 -20z"/>
<path d="M1797 1523 c-11 -10 -8 -61 3 -68 6 -4 10 10 10 34 0 42 -2 46 -13
34z"/>
<path d="M1844 1423 c-9 -33 17 -55 55 -47 25 5 25 5 7 -10 -12 -9 -29 -13
-43 -10 -28 7 -31 -11 -4 -26 25 -13 46 -5 59 25 20 43 -4 95 -44 95 -17 0
-25 -7 -30 -27z"/>
<path d="M1790 1270 c0 -16 5 -30 10 -30 6 0 10 14 10 30 0 17 -4 30 -10 30
-5 0 -10 -13 -10 -30z"/>
<path d="M1730 905 c0 -19 5 -35 10 -35 6 0 10 16 10 35 0 19 -4 35 -10 35 -5
0 -10 -16 -10 -35z"/>
<path d="M1795 830 c-3 -6 1 -35 10 -66 18 -61 15 -74 -12 -53 -10 8 -2 -5 17
-28 32 -39 39 -43 83 -43 26 0 47 2 47 5 0 8 -121 185 -131 190 -4 3 -10 1
-14 -5z"/>
<path d="M1730 675 c0 -19 5 -35 10 -35 6 0 10 16 10 35 0 19 -4 35 -10 35 -5
0 -10 -16 -10 -35z"/>
<path d="M1398 2253 c-16 -17 -33 -54 -43 -93 -9 -36 -21 -71 -27 -77 -18 -22
-51 -14 -113 27 -87 58 -101 55 -196 -38 -95 -93 -97 -106 -39 -204 33 -56 39
-71 30 -88 -14 -25 -35 -36 -90 -45 -56 -9 -95 -31 -109 -62 -6 -13 -11 -66
-11 -117 0 -84 2 -96 24 -119 13 -14 43 -31 67 -36 24 -6 57 -15 74 -19 52
-13 54 -47 6 -122 -58 -91 -55 -111 20 -194 55 -60 103 -96 127 -96 4 0 38 18
75 40 36 22 75 40 86 40 28 0 47 -33 61 -104 17 -84 50 -116 115 -112 38 2 53
8 72 30 21 25 23 36 23 141 0 139 -10 157 -104 181 -129 34 -220 105 -266 209
-52 115 -48 233 13 348 49 94 150 165 262 186 34 6 57 18 72 36 21 24 23 36
23 145 l0 118 -31 26 c-41 35 -87 35 -121 -1z m107 -147 l0 -130 -60 -11 c-85
-16 -142 -44 -207 -104 -251 -230 -132 -646 204 -714 l63 -13 0 -129 0 -130
-45 -3 c-25 -1 -51 1 -58 6 -6 5 -20 48 -30 98 -17 88 -17 89 -57 108 -45 21
-38 23 -148 -48 l-59 -38 -74 78 c-41 43 -74 83 -74 89 0 7 18 37 40 68 61 88
61 89 43 136 -9 22 -23 43 -32 45 -9 3 -51 12 -93 21 l-78 17 0 109 c0 126 -4
120 107 139 65 11 74 15 93 45 29 46 26 63 -25 141 -24 38 -45 74 -45 79 0 12
142 155 154 155 4 0 40 -22 79 -50 71 -48 73 -49 115 -38 49 12 54 20 72 108
19 95 24 102 73 98 l42 -3 0 -129z"/>
<path d="M2971 1408 c-6 -24 -22 -100 -36 -169 -61 -312 -190 -556 -409 -774
-122 -121 -247 -211 -391 -280 -126 -60 -225 -91 -405 -127 -85 -16 -159 -34
-164 -39 -15 -14 102 -11 195 6 207 36 441 134 613 256 285 204 498 520 582
863 22 92 44 306 32 306 -3 0 -11 -19 -17 -42z"/>
<path d="M10 1384 c-1 -215 115 -539 271 -758 79 -110 230 -262 337 -339 92
-66 255 -154 357 -192 109 -42 262 -75 370 -81 131 -7 109 8 -62 41 -405 79
-704 253 -927 540 -167 214 -258 428 -310 727 -20 117 -35 143 -36 62z"/>
</g>
</svg>
